<svg width="1890" height="1417" xmlns="http://www.w3.org/2000/svg">

 <g>
  <title>background</title>
  <rect fill="none" id="canvas_background" height="602" width="802" y="-1" x="-1"/>
 </g>
 <g>
  <title>Layer 1</title>
  <path id="svg_1" fill="#000000" d="m436.922302,114.871368c1.270237,-0.003224 2.540475,-0.006449 3.849204,-0.009771c1.423019,0.001471 2.846038,0.003039 4.269056,0.004693c1.501685,-0.001867 3.003369,-0.004167 4.505052,-0.006866c4.142819,-0.006143 8.285617,-0.005981 12.428439,-0.004805c4.463452,0.000203 8.926898,-0.00531 13.390347,-0.010058c8.758537,-0.008325 17.517067,-0.011056 26.275608,-0.011612c7.132602,-0.000475 14.265201,-0.00253 21.397802,-0.005701c20.250697,-0.008818 40.501389,-0.013418 60.752089,-0.012669c1.092926,0.00004 2.185852,0.00008 3.311897,0.000121c1.094274,0.000041 2.188548,0.000081 3.315982,0.000124c17.661657,0.000404 35.323291,-0.009121 52.984941,-0.023263c18.162904,-0.014427 36.325797,-0.021266 54.488707,-0.020406c10.184931,0.00033 20.36984,-0.002338 30.554766,-0.013178c8.690322,-0.00919 17.38061,-0.011213 26.070934,-0.004491c4.420984,0.003226 8.841905,0.00347 13.262883,-0.005353c93.862091,-0.17507 176.382567,21.816248 266.90748,102.751869c6.539277,6.550699 12.766203,13.07633 18.3125,20.5c0.405572,0.529161 0.811143,1.058321 1.229004,1.603516c29.980012,39.116883 48.988123,84.521707 59.833496,132.396484c0.228708,1.006738 0.228708,1.006738 0.462036,2.033814c2.55135,11.340807 2.55135,11.340807 2.475464,16.966186c0.649703,-0.008882 1.299405,-0.017764 1.968796,-0.026916c60.816516,-0.793122 60.816516,-0.793122 84.031204,4.026916c1.49865,0.299072 2.997526,0.597015 4.496582,0.894043c41.822161,8.331393 41.822161,8.331393 59.815918,17.168457c0.97147,0.473328 1.94294,0.946656 2.943848,1.434327c29.020419,14.439115 56.46669,36.519732 74.743652,63.503173c0.397998,0.580723 0.795996,1.161446 1.206055,1.759766c15.11904,22.284407 24.227874,46.80268 28.793945,73.240234c0.118594,0.671602 0.237188,1.343204 0.359375,2.035157c8.233768,49.304588 -1.119164,104.098056 -29.921875,145.152343c-18.894925,26.429466 -38.873426,52.485766 -64.4375,72.8125c-0.83789,0.705118 -1.675781,1.410235 -2.539062,2.136719c-14.935888,12.566903 -31.373351,22.986442 -48.304688,32.632813c-0.781172,0.448432 -1.562343,0.896865 -2.367187,1.358886c-1.489061,0.851573 -2.983634,1.6936 -4.484375,2.524414c-3.646478,2.082822 -5.658982,3.490173 -7.304688,7.347168c6.796176,3.183939 13.728158,5.725768 20.8125,8.1875c26.448731,9.39728 52.094301,21.79099 75.1875,37.8125c0.608438,0.418462 1.216875,0.836924 1.84375,1.268067c8.999286,6.213677 17.670137,12.836369 26.15625,19.731933c0.556231,0.450367 1.112461,0.900733 1.685547,1.364747c41.790855,34.098314 67.868196,78.851556 73.665039,132.904296c4.705232,48.371743 -1.3601,96.484292 -24.350586,139.730957c-0.592968,1.138243 -1.185937,2.276485 -1.796875,3.449219c-8.162462,15.016839 -18.686262,28.781329 -30.649414,40.966309c-1.65492,1.687685 -3.28745,3.395545 -4.920898,5.104004c-7.150567,7.398106 -14.61236,14.018975 -22.866211,20.158203c-1.764812,1.320926 -3.504667,2.670084 -5.243164,4.02539c-47.336344,36.419591 -108.040753,51.883897 -166.523438,57.296875c-0.986455,0.094263 -1.97291,0.188526 -2.989258,0.285645c-11.981728,1.005473 -23.993853,1.045746 -36.010742,1.089355c-1.275819,0.005227 -2.551639,0.010454 -3.866119,0.015839c-44.213815,0.115501 -88.427879,-2.452989 -132.58046,-4.515304c-6.517315,-0.303496 -13.035162,-0.593071 -19.553421,-0.875535c-1.081485,-0.047899 -2.16297,-0.095798 -3.277227,-0.145149c-18.687208,-0.811551 -37.34963,-1.014631 -56.05056,-1.054081c-5.04019,-0.010927 -10.080318,-0.031214 -15.12047,-0.053119c-14.30555,-0.061163 -28.611087,-0.116198 -42.916733,-0.149018c-7.957485,-0.018332 -15.914859,-0.047211 -23.872262,-0.088004c-4.189946,-0.021016 -8.379751,-0.036521 -12.569753,-0.038808c-3.918079,-0.002143 -7.83586,-0.017979 -11.753849,-0.044389c-1.434695,-0.007195 -2.869427,-0.009294 -4.304136,-0.005898c-1.958593,0.003896 -3.917196,-0.012322 -5.875717,-0.029535c-1.094673,-0.00331 -2.189346,-0.006621 -3.317191,-0.010031c-3.370761,-0.43762 -5.268799,-1.298559 -7.942102,-3.381968c-0.599365,-3.154541 -0.599365,-3.154541 -0.558593,-7.003906c0.002331,-0.679089 0.004662,-1.358178 0.007064,-2.057846c0.009731,-1.433238 0.031505,-2.866439 0.064469,-4.299332c0.049467,-2.197272 0.061482,-4.392308 0.067138,-6.590087c0.108596,-10.737502 0.108596,-10.737502 2.419922,-13.048829c2.995359,-0.202291 5.899879,-0.27997 8.896729,-0.27124c0.922178,-0.005227 1.844356,-0.010453 2.794479,-0.015838c2.007974,-0.010261 4.015974,-0.016024 6.023974,-0.017882c3.182626,-0.003655 6.364938,-0.020361 9.547498,-0.040758c9.050808,-0.055474 18.101664,-0.086018 27.152603,-0.11058c5.533187,-0.015923 11.066154,-0.046199 16.599226,-0.084765c2.105391,-0.011618 4.21082,-0.01758 6.316243,-0.017681c2.955817,-0.000193 5.911035,-0.018545 8.866758,-0.040621c0.862171,0.004577 1.724343,0.009155 2.61264,0.01387c5.670209,-0.066938 11.09921,-0.75005 16.18985,-3.414505c4.239306,-4.819195 5.124887,-10.374655 5.126853,-16.560343c0.003894,-1.699522 0.003894,-1.699522 0.007867,-3.433377c-0.002488,-1.239265 -0.004975,-2.47853 -0.007538,-3.755349c0.000931,-1.30735 0.001862,-2.614701 0.002822,-3.961668c0.001782,-3.59844 -0.003556,-7.196837 -0.010806,-10.795269c-0.004233,-2.283637 -0.006745,-4.567271 -0.00878,-6.850911c-0.032046,-32.71555 -0.400881,-65.425186 -0.852828,-98.13724c-0.077474,-5.611699 -0.153013,-11.223422 -0.227379,-16.835163c-0.010813,-0.815824 -0.021626,-1.631647 -0.032766,-2.472192c-0.021986,-1.659442 -0.043969,-3.318883 -0.065947,-4.978325c-0.202682,-15.287854 -0.410797,-30.575631 -0.621005,-45.863384c-0.179741,-13.081516 -0.354583,-26.163091 -0.526069,-39.244718c-0.201212,-15.349116 -0.405355,-30.698189 -0.614203,-46.047203c-0.022209,-1.632766 -0.044414,-3.265532 -0.066615,-4.898298c-0.016374,-1.203991 -0.016374,-1.203991 -0.033078,-2.432306c-0.076338,-5.628044 -0.15059,-11.256113 -0.224014,-16.884196c-0.089034,-6.820399 -0.181287,-13.640745 -0.277692,-20.461043c-0.048976,-3.470596 -0.096515,-6.941196 -0.140115,-10.411865c-0.048013,-3.759977 -0.10159,-7.519835 -0.156597,-11.279716c-0.012651,-1.092729 -0.025302,-2.185457 -0.038336,-3.311299c-0.082355,-5.223565 -0.335592,-10.237023 -1.233774,-15.386135c-0.606584,0.160811 -1.213169,0.321622 -1.838134,0.487305c-25.210613,6.629519 -50.167252,10.601114 -76.161866,12.512695c-0.712851,0.053275 -1.425703,0.10655 -2.160156,0.161438c-62.032195,4.551655 -124.651932,2.126693 -186.709503,-0.381408c-28.112807,-1.131795 -56.203589,-1.964868 -84.337372,-2.197998c-1.028398,-0.008579 -1.028398,-0.008579 -2.077572,-0.01733c-14.065167,-0.115389 -28.130391,-0.187293 -42.195989,-0.225317c-4.900991,-0.014156 -9.801948,-0.034536 -14.702916,-0.055153c-3.372942,-0.010543 -6.745738,-0.009364 -10.118692,-0.0073c-2.025163,-0.006693 -4.050325,-0.013852 -6.075485,-0.02156c-0.909725,0.004114 -1.81945,0.008228 -2.756743,0.012467c-8.156899,-0.052325 -8.156899,-0.052325 -11.865572,-2.267839c-1.519756,-4.559268 -1.54015,-9.160668 -1.8125,-13.9375c-0.076699,-1.002246 -0.153398,-2.004492 -0.232422,-3.037109c-0.053496,-0.966152 -0.106992,-1.932305 -0.162109,-2.927734c-0.056477,-0.881638 -0.112954,-1.763277 -0.171143,-2.671631c0.532177,-3.413971 1.630401,-4.347774 4.378174,-6.426026c2.836536,-0.382421 5.284024,-0.524253 8.117432,-0.482421c0.815065,-0.003913 1.63013,-0.007825 2.469894,-0.011857c1.766778,-0.005971 3.533604,-0.002811 5.300356,0.008423c2.794898,0.017244 5.58876,0.009766 8.383665,-0.004257c5.930455,-0.025356 11.860666,-0.019824 17.791153,-0.009888c6.8753,0.011513 13.750098,0.010455 20.625334,-0.024063c2.756199,-0.007113 5.511611,0.009606 8.267748,0.027115c1.685465,-0.005705 3.370926,-0.012522 5.056381,-0.02063c0.768392,0.011315 1.536784,0.022629 2.328461,0.034287c4.224106,-0.033587 4.224106,-0.033587 7.596329,-2.35936c2.010427,-4.079193 2.194386,-7.260222 2.208511,-11.764526c0.003313,-0.684543 0.006627,-1.369087 0.01004,-2.074374c0.009545,-2.33403 0.011346,-4.667994 0.012665,-7.002042c0.00393,-1.707515 0.00803,-3.41503 0.012283,-5.122544c0.009557,-4.826478 0.010139,-9.652922 0.008225,-14.479408c-0.000996,-3.215631 0.000024,-6.431258 0.001221,-9.646889c0.003816,-28.090529 -0.19003,-56.173092 -0.606291,-84.260091c-0.055743,-3.77561 -0.110196,-7.551239 -0.16466,-11.326868c-0.011117,-0.770223 -0.022233,-1.540446 -0.033687,-2.334009c-0.11766,-8.161136 -0.234131,-16.322289 -0.349209,-24.483463c-0.023878,-1.690529 -0.047855,-3.381058 -0.071931,-5.071585c-0.839307,-58.967122 -1.046118,-117.9279 -1.027286,-176.899941c0.000865,-2.74297 0.001625,-5.485941 0.002365,-8.228912c0.010376,-36.958941 0.041354,-73.917843 0.107427,-110.876728c0.025207,-14.173034 0.044036,-28.34607 0.058806,-42.519119c0.009883,-9.108262 0.026422,-18.216463 0.05218,-27.324695c0.017026,-6.192726 0.02659,-12.385435 0.030665,-18.578183c0.002578,-3.531978 0.008196,-7.063868 0.023401,-10.595816c1.635405,-59.461006 1.635405,-59.461006 -14.211478,-115.568156c-2.495301,-2.495301 -3.991201,-2.248978 -7.397125,-2.290084c-0.751715,0.000982 -1.50343,0.001963 -2.277924,0.002975c-0.792053,-0.006833 -1.584106,-0.013666 -2.400161,-0.020706c-1.723134,-0.013608 -3.446309,-0.022649 -5.169489,-0.02771c-2.727878,-0.008272 -5.455419,-0.028762 -8.183203,-0.052536c-5.794816,-0.048301 -11.589666,-0.081172 -17.384598,-0.111939c-6.704128,-0.035664 -13.408093,-0.077631 -20.112066,-0.13594c-2.68604,-0.020056 -5.371955,-0.028387 -8.058054,-0.036301c-1.651387,-0.012976 -3.30277,-0.026497 -4.954147,-0.040649c-0.745642,0.000982 -1.491284,0.001964 -2.259522,0.002975c-4.000702,-0.047696 -7.286789,-0.29196 -10.803711,-2.290085c-1.480077,-4.440232 -1.184372,-8.786753 -1.1875,-13.4375c-0.012246,-0.95455 -0.024492,-1.909101 -0.037109,-2.892578c-0.001934,-0.921035 -0.003867,-1.84207 -0.005859,-2.791015c-0.004109,-0.839744 -0.008218,-1.679488 -0.012452,-2.544678c0.266817,-2.563855 0.870529,-4.162357 2.24292,-6.334229c2.725808,-1.362903 4.869142,-1.126685 7.922313,-1.128634zm191.077687,42.128634c-1.69189,1.799253 -1.69189,1.799253 -2.8125,3.875c-0.39832,0.657422 -0.79664,1.314844 -1.207031,1.992188c-2.476518,5.387167 -2.148782,11.115924 -2.182816,16.924805c-0.009599,1.003264 -0.019198,2.006528 -0.029088,3.040194c-0.031063,3.404873 -0.054856,6.809755 -0.078379,10.214688c-0.020283,2.484464 -0.040818,4.968925 -0.061583,7.453385c-0.061878,7.673191 -0.113856,15.346431 -0.164468,23.019703c-0.019984,2.987802 -0.041,5.975597 -0.062014,8.963392c-0.625634,89.156365 -0.590178,178.31537 -0.587309,267.473464c0.000418,19.265124 -0.009322,38.530228 -0.023253,57.795346c-0.014432,20.125574 -0.021268,40.251139 -0.020406,60.376718c0.000327,11.165269 -0.002225,22.330518 -0.013178,33.495782c-0.009192,9.421593 -0.011206,18.843155 -0.004491,28.264751c0.00321,4.769611 0.00353,9.539164 -0.005353,14.308769c-0.033958,19.487339 0.244455,38.916811 1.181114,58.384091c0.0623,1.301347 0.0623,1.301347 0.125859,2.628983c0.178516,38.609319 0.178516,38.609319 12.944896,73.788741c3.174819,2.116546 4.827301,2.463158 8.539063,3c1.122934,0.163873 2.245869,0.327745 3.402832,0.496582c1.215425,0.166128 2.430849,0.332256 3.683105,0.503418c1.273433,0.175152 2.546865,0.350303 3.858887,0.530762c12.159171,1.624149 24.268543,2.79353 36.516113,3.469238c1.171305,0.065743 1.171305,0.065743 2.366272,0.132813c26.672447,1.477563 53.335516,2.073064 80.044605,2.11306c2.11671,0.00406 4.233383,0.011552 6.350079,0.019813c22.608268,0.076915 45.048517,-0.629129 67.364044,-4.515686c1.688028,-0.268769 1.688028,-0.268769 3.410157,-0.542968c7.947273,-1.343572 15.672412,-3.246876 23.460449,-5.307617c1.061215,-0.278911 2.122431,-0.557822 3.215805,-0.845185c2.596721,-0.682775 5.192894,-1.367564 7.788589,-2.05423c0.069054,-35.227227 0.121724,-70.45444 0.153196,-105.681721c0.003751,-4.18316 0.007634,-8.36632 0.011599,-12.54948c0.000787,-0.832598 0.001574,-1.665197 0.002385,-2.523026c0.012963,-13.383899 0.036565,-26.767758 0.064279,-40.151633c0.02831,-13.789737 0.044771,-27.579453 0.050807,-41.369218c0.003704,-7.721617 0.012501,-15.443152 0.034924,-23.164739c5.25075,-87.160736 5.25075,-87.160736 -19.50469,-166.872683c-3.350113,-3.201219 -4.592419,-3.808573 -9.039215,-3.845718c-0.886235,-0.009789 -1.772471,-0.019578 -2.685562,-0.029663c-0.974637,-0.005755 -1.949274,-0.011511 -2.953445,-0.017441c-1.024417,-0.009899 -2.048834,-0.019799 -3.104294,-0.029999c-3.397992,-0.031676 -6.795997,-0.056396 -10.194046,-0.081085c-2.351272,-0.020564 -4.702539,-0.04156 -7.053803,-0.062973c-6.197794,-0.055275 -12.395622,-0.104661 -18.593475,-0.152847c-6.32073,-0.050175 -12.64141,-0.105882 -18.962097,-0.161133c-12.408813,-0.107649 -24.817667,-0.209079 -37.226563,-0.306641c-1.486797,-2.973594 -1.111126,-5.662991 -1.097656,-8.976562c0.001415,-0.685248 0.00283,-1.370495 0.004288,-2.076508c0.005602,-2.190687 0.018154,-4.381273 0.030868,-6.57193c0.005015,-1.484373 0.009578,-2.968748 0.013672,-4.453125c0.011031,-3.640658 0.028297,-7.281256 0.048828,-10.921875c1.11371,-0.004231 2.227419,-0.008463 3.374877,-0.012824c27.250335,-0.103748 54.500645,-0.21256 81.750939,-0.326515c13.178675,-0.054996 26.357353,-0.108418 39.53605,-0.157975c11.502647,-0.043259 23.005277,-0.089633 34.507898,-0.139564c6.075877,-0.026271 12.151752,-0.051106 18.22765,-0.072196c31.892258,-0.094511 31.892258,-0.094511 63.776659,-0.748201c1.30055,-0.038032 2.6011,-0.076064 3.941062,-0.115249c6.345777,-0.214927 12.586365,-0.620077 18.884865,-1.427476c-0.622288,-3.614138 -1.603743,-6.789333 -3.003906,-10.175781c-0.406699,-0.984602 -0.813398,-1.969204 -1.232422,-2.983642c-0.437637,-1.040516 -0.875273,-2.081031 -1.326172,-3.153077c-0.451816,-1.077253 -0.903633,-2.154506 -1.36914,-3.264404c-3.386271,-7.988661 -7.011139,-15.781253 -11.049805,-23.458252c-1.066397,-2.057134 -2.087061,-4.133094 -3.104492,-6.214844c-9.649455,-19.419105 -22.193644,-37.972314 -35.914063,-54.75c-0.752812,-0.942304 -1.505625,-1.884609 -2.28125,-2.855468c-4.300652,-5.338995 -8.75728,-10.50277 -13.382812,-15.5625c-1.277989,-1.412627 -2.549657,-2.831479 -3.789063,-4.278076c-4.724485,-5.506069 -9.740312,-10.683574 -14.870117,-15.8125c-1.415957,-1.418138 -2.823741,-2.844422 -4.231445,-4.270752c-6.170346,-6.183237 -12.620131,-11.777157 -19.445313,-17.220704c-1.81508,-1.559501 -3.628163,-3.121338 -5.4375,-4.6875c-15.290383,-12.696128 -32.017897,-23.042636 -49.5625,-32.3125c-0.786328,-0.415883 -1.572656,-0.831767 -2.382812,-1.260253c-34.501616,-17.934529 -74.267195,-28.7336 -112.429688,-34.989747c-0.91604,-0.151142 -1.83208,-0.302285 -2.775879,-0.458007c-17.770019,-2.739558 -35.424464,-3.620221 -53.388672,-3.552735c-3.415379,0.010798 -6.83024,-0.000008 -10.245605,-0.012695c-20.559554,-0.689823 -20.559554,-0.689823 -39.777344,5.273437zm379.132813,276.328125c-0.843943,0.116721 -1.687887,0.233442 -2.557404,0.353699c-5.89367,0.937118 -10.711419,2.303052 -14.887909,6.818176c-5.715235,8.467016 -3.833033,22.007105 -3.821213,31.792618c-0.001872,1.406527 -0.004174,2.813053 -0.006865,4.219578c-0.00607,3.832236 -0.00599,7.664449 -0.004805,11.496688c0.000205,4.145083 -0.005326,8.290159 -0.010058,12.435239c-0.008278,8.104741 -0.011053,16.209475 -0.011612,24.31422c-0.000476,6.584357 -0.002535,13.168712 -0.005701,19.753069c-0.008795,18.673329 -0.013421,37.346652 -0.01267,56.019982c0.00004,1.005019 0.00008,2.010037 0.000122,3.045511c0.00004,1.006245 0.000081,2.012491 0.000123,3.049228c0.000408,16.341366 -0.009185,32.682709 -0.023262,49.024068c-0.014344,16.784471 -0.021271,33.56893 -0.020406,50.353406c0.000332,9.421533 -0.002434,18.843041 -0.013178,28.264569c-0.009079,8.012356 -0.011301,16.024678 -0.004491,24.037038c0.003277,4.089493 0.00328,8.178918 -0.005353,12.268404c-0.007813,3.739425 -0.006487,7.478728 0.002284,11.218149c0.002282,2.00142 -0.005334,4.002843 -0.013239,6.004249c0.004598,1.179444 0.009197,2.358887 0.013935,3.574072c-0.000217,1.022158 -0.000434,2.044315 -0.000658,3.097447c0.073216,2.777604 0.073216,2.777604 2.249547,5.532465c4.264016,1.377221 8.711309,1.114664 13.146973,1.065918c0.809481,-0.004672 1.618962,-0.009345 2.452972,-0.01416c1.760691,-0.010495 3.52137,-0.023155 5.282032,-0.037723c2.835028,-0.022263 5.669987,-0.036198 8.505078,-0.047695c8.063949,-0.033275 16.127793,-0.073219 24.191559,-0.137726c28.283016,-0.218569 56.242441,0.69322 84.421386,3.171386c1.229021,0.107919 2.458041,0.215838 3.724304,0.327027c6.223564,0.560978 12.438338,1.187511 18.650696,1.860473c20.453946,3.253189 20.453946,3.253189 39.75,-1.75c0.672488,-0.36424 1.344976,-0.728481 2.037842,-1.103759c1.965837,-1.079767 3.903416,-2.197699 5.837158,-3.333741c1.014492,-0.585234 2.028985,-1.170468 3.074219,-1.773437c38.057732,-23.127809 60.070218,-65.153145 70.457031,-107.253906c3.940371,-16.974752 5.871554,-33.6924 5.78125,-51.097657c-0.002155,-0.757132 -0.00431,-1.514265 -0.00653,-2.294342c-0.236103,-52.053762 -19.01544,-99.759181 -54.083313,-138.135345c-2.133141,-2.346829 -4.208977,-4.735658 -6.285157,-7.132813c-3.710521,-4.159841 -7.636991,-7.773756 -11.9375,-11.3125c-0.50354,-0.426518 -1.00708,-0.853037 -1.525879,-1.29248c-33.59076,-28.419949 -75.209434,-43.872103 -118.933105,-46.489746c-2.541016,-0.217774 -2.541016,-0.217774 -5.612793,-0.727539c-5.238199,-0.653717 -10.411862,-0.672589 -15.686035,-0.69336c-1.138877,-0.0057 -2.277754,-0.0114 -3.451142,-0.017273c-2.412273,-0.009428 -4.824558,-0.015975 -7.236847,-0.019836c-3.618569,-0.009605 -7.236546,-0.040607 -10.85498,-0.072266c-10.941214,-0.050724 -21.716201,0.125713 -32.566406,1.640625zm-17.432862,402.59253c-2.711826,3.31705 -2.825813,6.079713 -2.831379,10.212169c-0.003841,1.068742 -0.007682,2.137483 -0.011639,3.23861c0.000866,1.178635 0.001733,2.35727 0.002625,3.571621c-0.002971,1.249114 -0.005942,2.498229 -0.009003,3.785195c-0.008079,3.475223 -0.00986,6.950426 -0.010597,10.425657c-0.00185,3.747155 -0.009398,7.4943 -0.016136,11.241449c-0.013603,8.208789 -0.019614,16.417573 -0.02401,24.626372c-0.002766,5.141697 -0.007005,10.283392 -0.011505,15.425088c-0.012208,14.272715 -0.022496,28.545429 -0.025875,42.81815c-0.000219,0.914478 -0.000439,1.828956 -0.000665,2.771146c-0.000218,0.916577 -0.000437,1.833153 -0.000661,2.777505c-0.000444,1.85705 -0.00089,3.714099 -0.00134,5.571149c-0.000222,0.921145 -0.000443,1.84229 -0.000671,2.791349c-0.003925,14.833563 -0.021299,29.667076 -0.044689,44.50062c-0.023894,15.279183 -0.036184,30.558341 -0.037342,45.837543c-0.000908,8.557634 -0.00652,17.115202 -0.024819,25.672818c-4.923072,78.488651 -4.923072,78.488651 16.347755,150.812904c3.779653,3.623582 7.840703,5.350263 12.75,6.9375c1.170308,0.379589 1.170308,0.379589 2.364258,0.766846c29.698452,9.226619 60.351435,10.561722 91.198242,10.670654c1.181758,0.007946 2.363517,0.015892 3.581085,0.024079c20.820357,0.107439 41.730284,-0.931436 61.981415,-6.149079c1.53612,-0.38406 1.53612,-0.38406 3.103272,-0.775878c41.034527,-10.602957 76.177168,-34.329555 98.084228,-71.032715c29.413515,-52.24457 35.965105,-118.196484 20.214844,-175.953125c-3.938722,-13.70575 -8.854498,-26.757484 -15.277344,-39.488282c-0.346113,-0.692065 -0.692226,-1.38413 -1.048828,-2.097168c-8.298849,-16.318182 -19.491569,-31.180793 -32.302734,-44.223632c-1.834088,-1.868314 -3.646392,-3.756753 -5.460938,-5.644043c-7.734572,-7.965315 -15.67398,-15.234474 -24.595215,-21.844239c-1.483771,-1.109757 -2.939712,-2.256457 -4.393066,-3.405761c-53.626284,-41.945312 -123.925891,-58.540748 -190.913971,-59.080689c-2.028991,-0.016411 -4.057888,-0.04336 -6.086761,-0.070678c-14.068124,-0.218022 -14.068124,-0.218022 -26.498536,5.286865z"/>
  <path id="svg_6" fill="#000000"/>
  <path id="svg_7" fill="#000000"/>
  <path id="svg_8" fill="#000000"/>
 </g>
</svg>